<?xml version="1.0" encoding="utf-8"?>
<svg version="1.1" xmlns:xlink="http://www.w3.org/1999/xlink" width="75px" height="75px" xmlns="http://www.w3.org/2000/svg">
  <g transform="matrix(1 0 0 1 -409 -678 )">
    <path d="M 446.5 678  C 467.5 678  484 694.5  484 715.5  C 484 736.5  467.5 753  446.5 753  C 425.5 753  409 736.5  409 715.5  C 409 694.5  425.5 678  446.5 678  Z " fill-rule="nonzero" fill="#847f7f" stroke="none" />
    <path d="M 446.5 678.5  C 467.22 678.5  483.5 694.78  483.5 715.5  C 483.5 736.22  467.22 752.5  446.5 752.5  C 425.78 752.5  409.5 736.22  409.5 715.5  C 409.5 694.78  425.78 678.5  446.5 678.5  Z " stroke-width="1" stroke="#797979" fill="none" />
  </g>
</svg>