<?xml version="1.0" encoding="utf-8"?>
<svg version="1.1" xmlns:xlink="http://www.w3.org/1999/xlink" width="29px" height="34px" xmlns="http://www.w3.org/2000/svg">
  <g transform="matrix(1 0 0 1 -428 -350 )">
    <path d="M 28.3958333333333 2.42857142857143  L 26.5833333333333 2.42857142857143  C 26.5833333333333 5.72991071428571  25.9130859375 8.64862351190476  24.5725911458333 11.1847098214286  C 23.2320963541667 13.7207961309524  21.5549045138889 15.6592261904762  19.541015625 17  C 21.5549045138889 18.3407738095238  23.2320963541667 20.2792038690476  24.5725911458333 22.8152901785714  C 25.9130859375 25.3513764880952  26.5833333333333 28.2700892857143  26.5833333333333 31.5714285714286  L 28.3958333333333 31.5714285714286  C 28.5720486111111 31.5714285714286  28.716796875 31.6283482142857  28.830078125 31.7421875  C 28.943359375 31.8560267857143  29 32.0014880952381  29 32.1785714285714  L 29 33.3928571428571  C 29 33.5699404761905  28.943359375 33.7154017857143  28.830078125 33.8292410714286  C 28.716796875 33.9430803571429  28.5720486111111 34  28.3958333333333 34  L 0.604166666666667 34  C 0.427951388888889 34  0.283203125 33.9430803571429  0.169921875 33.8292410714286  C 0.056640625 33.7154017857143  0 33.5699404761905  0 33.3928571428571  L 0 32.1785714285714  C 0 32.0014880952381  0.056640625 31.8560267857143  0.169921875 31.7421875  C 0.283203125 31.6283482142857  0.427951388888889 31.5714285714286  0.604166666666667 31.5714285714286  L 2.41666666666667 31.5714285714286  C 2.41666666666667 28.2700892857143  3.0869140625 25.3513764880952  4.42740885416667 22.8152901785714  C 5.76790364583333 20.2792038690476  7.44509548611111 18.3407738095238  9.458984375 17  C 7.44509548611111 15.6592261904762  5.76790364583333 13.7207961309524  4.42740885416667 11.1847098214286  C 3.0869140625 8.64862351190476  2.41666666666667 5.72991071428571  2.41666666666667 2.42857142857143  L 0.604166666666667 2.42857142857143  C 0.427951388888889 2.42857142857143  0.283203125 2.37165178571429  0.169921875 2.2578125  C 0.056640625 2.14397321428571  0 1.9985119047619  0 1.82142857142857  L 0 0.607142857142859  C 0 0.43005952380952  0.056640625 0.284598214285714  0.169921875 0.170758928571427  C 0.283203125 0.0569196428571412  0.427951388888889 0  0.604166666666667 0  L 28.3958333333333 0  C 28.5720486111111 0  28.716796875 0.0569196428571412  28.830078125 0.170758928571427  C 28.943359375 0.284598214285714  29 0.43005952380952  29 0.607142857142859  L 29 1.82142857142857  C 29 1.9985119047619  28.943359375 2.14397321428571  28.830078125 2.2578125  C 28.716796875 2.37165178571429  28.5720486111111 2.42857142857143  28.3958333333333 2.42857142857143  Z M 23.9967447916667 5  C 24.1100260416667 4.08556547619048  24.1666666666667 3.27604166666667  24.1666666666667 3  L 4.83333333333333 3  C 4.83333333333333 3.26339285714286  4.88997395833333 4.07291666666667  5.00325520833333 5  L 23.9967447916667 5  Z M 4.83333333333333 31  L 24.1666666666667 31  C 24.1666666666667 29.9270833333333  23.9526909722222 28.3491443452381  23.5247395833333 26.8376116071429  C 23.0967881944444 25.3260788690476  22.5272352430556 24.0106026785714  21.8160807291667 22.8911830357143  C 21.1049262152778 21.7717633928571  20.3088107638889 20.8104538690476  19.427734375 20.0072544642857  C 18.5466579861111 19.2040550595238  17.6278211805556 18.6063988095238  16.6712239583333 18.2142857142857  L 12.3287760416667 18.2142857142857  C 11.3721788194444 18.6063988095238  10.4533420138889 19.2040550595238  9.572265625 20.0072544642857  C 8.69118923611111 20.8104538690476  7.89507378472222 21.7717633928571  7.18391927083333 22.8911830357143  C 6.47276475694444 24.0106026785714  5.90321180555556 25.3260788690476  5.47526041666667 26.8376116071429  C 5.04730902777778 28.3491443452381  4.83333333333333 29.9270833333333  4.83333333333333 31  Z " fill-rule="nonzero" fill="#000000" stroke="none" transform="matrix(1 0 0 1 428 350 )" />
  </g>
</svg>